<?xml version="1.0" encoding="utf-8"?>
<!-- Generator: Adobe Illustrator 26.2.1, SVG Export Plug-In . SVG Version: 6.00 Build 0)  -->
<svg version="1.1" id="Layer_1" xmlns="http://www.w3.org/2000/svg" xmlns:xlink="http://www.w3.org/1999/xlink" x="0px" y="0px"
	 viewBox="0 0 114 115" style="enable-background:new 0 0 114 115;" xml:space="preserve">
<g>
	<polygon points="88.1,47.6 100.1,47.6 110.5,37.8 98.6,37.8 	"/>
	<path d="M77.4,93.7c3.4-1.2,6.5-3,9.3-5.4c2.8-2.4,5.1-5.3,7.1-8.7c1.9-3.4,3.4-7.4,4.3-12H83c-0.7,2.6-1.8,5.4-3.4,8.1
		c-1.5,2.7-3.5,5.2-5.8,7.5c-2.5,2.4-5.3,4.4-8.6,6c-3.3,1.6-7,2.7-11.1,3.1c4,2.2,8.1,3.2,12.4,3.2C70.4,95.5,74,94.9,77.4,93.7z"
		/>
	<path d="M98.7,33.8H113c-2-5.2-4.6-9.5-7.8-13.4c-3.1-3.9-6.6-7.2-10.4-9.9c-3.8-2.7-8-4.7-12.4-6.2C78,3,73.6,2.2,69.1,2
		c6.1,2.7,11.9,6.7,17.2,11.9C91.6,19.2,95.7,26.1,98.7,33.8z"/>
	<path d="M89,91.7c-6.4,5.3-13.8,8-22.4,8c-4,0-8-0.8-12-2.5c-4-1.7-7.6-4.2-10.8-7.4c-3.2-3.3-5.8-7.3-7.8-12.1
		C34,72.7,33,67.3,33,61.1c0-5.4,0.8-10.4,2.3-14.8c1.5-4.5,3.7-8.3,6.4-11.7c2.7-3.3,5.9-6,9.6-8c3.7-2,7.7-3.2,12-3.8
		c-1.9-1.1-3.9-2-6-2.5c-2-0.6-4.1-0.8-6.1-0.8c-4.3,0-8.4,1-12.3,2.9c-3.9,1.9-7.3,4.7-10.3,8.2c-3,3.5-5.4,7.8-7.1,12.7
		c-1.8,5-2.7,10.5-2.7,16.7c0,8.3,1.3,15.7,3.9,22.3c2.6,6.6,6.1,12.1,10.5,16.6c4.4,4.5,9.5,8,15.4,10.4c5.9,2.4,12.1,3.6,18.7,3.6
		c5,0,9.9-0.7,14.6-2.2c4.7-1.4,9.1-3.6,13.2-6.5c4.1-2.9,7.7-6.4,10.9-10.6c3.2-4.2,5.8-9,7.8-14.4l-11.8-10.6
		C99.7,78.7,95.4,86.4,89,91.7z"/>
	<path d="M23.8,93.7c-2.9-4.5-5.2-9.6-6.8-15.2c-1.6-5.6-2.5-11.8-2.5-18.4c0-6.5,0.9-12.4,2.8-17.9c1.9-5.5,4.5-10.2,7.8-14.1
		c3.3-3.9,7.2-7,11.6-9.3c4.4-2.3,9.1-3.4,14.1-3.4c3.5,0,6.9,0.7,10.4,2.1c3.4,1.4,6.6,3.4,9.5,6.1c2.9,2.7,5.5,5.9,7.6,9.7
		c2.2,3.8,3.8,8,4.9,12.7L95,35.3c-1.8-5-4.3-9.5-7.4-13.6c-3.1-4-6.6-7.5-10.5-10.4C73.2,8.3,69,6.1,64.5,4.5
		c-4.5-1.6-9-2.4-13.6-2.4c-7.5,0-14.3,1.5-20.6,4.5c-6.2,3-11.6,7-16.1,12.2C9.8,24,6.4,30,3.9,36.9c-2.5,6.9-3.7,14.3-3.7,22
		c0,8.6,1.3,16.2,4,22.7c2.7,6.6,6.2,12.1,10.6,16.6c4.4,4.5,9.4,8,14.9,10.4c5.5,2.5,11.2,3.9,17.1,4.3c-4.6-1.9-8.9-4.5-12.7-7.8
		C30.1,102,26.7,98.2,23.8,93.7z"/>
</g>
</svg>
