<?xml version="1.0" encoding="utf-8"?>
<!-- Generator: Adobe Illustrator 26.2.1, SVG Export Plug-In . SVG Version: 6.00 Build 0)  -->
<svg version="1.1" id="Layer_1" xmlns="http://www.w3.org/2000/svg" xmlns:xlink="http://www.w3.org/1999/xlink" x="0px" y="0px"
	 viewBox="0 0 119 117" style="enable-background:new 0 0 119 117;" xml:space="preserve">
<g>
	<g>
		<polygon points="89.6,48.4 101.5,48.4 111.9,38.7 100,38.7 		"/>
		<path d="M78.9,94.4c3.4-1.2,6.5-3,9.3-5.4c2.8-2.3,5.1-5.3,7-8.7c1.9-3.4,3.4-7.4,4.3-11.9h-15c-0.7,2.6-1.8,5.4-3.4,8.1
			c-1.5,2.7-3.5,5.2-5.8,7.5c-2.4,2.3-5.3,4.4-8.6,6c-3.3,1.6-6.9,2.7-11,3.1c4,2.1,8.1,3.2,12.4,3.2C71.9,96.2,75.5,95.6,78.9,94.4
			z"/>
		<path d="M100.1,34.8h14.2c-2-5.2-4.6-9.5-7.7-13.4c-3.1-3.9-6.6-7.2-10.4-9.8c-3.8-2.7-7.9-4.7-12.3-6.1C79.5,4,75.1,3.2,70.6,3
			c6.1,2.7,11.8,6.6,17.1,11.9C93,20.2,97.2,27,100.1,34.8z"/>
		<path d="M90.5,92.4c-6.3,5.3-13.8,8-22.4,8c-4,0-8-0.8-11.9-2.5c-4-1.7-7.6-4.2-10.8-7.4c-3.2-3.3-5.8-7.3-7.7-12.1
			c-2-4.8-3.1-10.3-3.1-16.4c0-5.4,0.8-10.3,2.3-14.8c1.5-4.4,3.6-8.3,6.4-11.6c2.7-3.3,5.9-6,9.6-8c3.7-2,7.7-3.2,11.9-3.8
			c-1.9-1.1-3.9-2-6-2.5c-2-0.6-4.1-0.8-6.1-0.8c-4.3,0-8.4,1-12.2,2.9c-3.9,1.9-7.3,4.7-10.3,8.2c-3,3.5-5.3,7.8-7.1,12.7
			c-1.8,5-2.7,10.5-2.7,16.6c0,8.3,1.3,15.7,3.9,22.2c2.6,6.5,6.1,12,10.5,16.5c4.4,4.5,9.5,7.9,15.4,10.3
			c5.9,2.4,12.1,3.6,18.6,3.6c5,0,9.8-0.7,14.5-2.1c4.7-1.4,9.1-3.6,13.2-6.4c4.1-2.9,7.7-6.4,10.9-10.6c3.2-4.2,5.8-9,7.8-14.4
			l-11.8-10.6C101.1,79.4,96.8,87.1,90.5,92.4z"/>
		<path d="M25.5,94.4c-2.9-4.5-5.2-9.5-6.8-15.2c-1.6-5.6-2.5-11.7-2.5-18.4c0-6.4,0.9-12.4,2.8-17.8c1.9-5.5,4.5-10.2,7.8-14.1
			c3.3-3.9,7.2-7,11.6-9.3c4.4-2.2,9.1-3.4,14.1-3.4c3.5,0,6.9,0.7,10.3,2.1c3.4,1.4,6.6,3.4,9.5,6c2.9,2.7,5.4,5.9,7.6,9.6
			c2.1,3.8,3.8,8,4.9,12.7l11.6-10.6c-1.8-5-4.3-9.5-7.3-13.5c-3.1-4-6.6-7.5-10.5-10.4c-3.9-2.9-8.1-5.2-12.6-6.7
			c-4.4-1.6-9-2.4-13.5-2.4c-7.5,0-14.3,1.5-20.5,4.4c-6.2,3-11.6,7-16,12.2c-4.4,5.2-7.9,11.2-10.3,18.1C3.2,44.7,2,52,2,59.8
			c0,8.6,1.3,16.1,4,22.7c2.7,6.5,6.2,12,10.6,16.5c4.4,4.5,9.3,8,14.9,10.4c5.5,2.4,11.2,3.9,17,4.3c-4.6-1.9-8.8-4.5-12.7-7.7
			C31.8,102.7,28.4,98.9,25.5,94.4z"/>
	</g>
</g>
</svg>
